{"title":"[Ani] Firebreather [ATG 2010] 720p.mp4","uid":7243220,"size":690250551,"categoryP":"video","categoryS":"hd___movies","magnet":"?xt=urn:btih:b20c439b3c4ebe5cb9671ebb0c082db546695d97&amp;dn=%5BAni%5D+Firebreather+%5BATG+2010%5D+720p.mp4&amp;tr=udp%3A%2F%2Ftracker.openbittorrent.com%3A80&amp;tr=udp%3A%2F%2Fopen.demonii.com%3A1337&amp;tr=udp%3A%2F%2Ftracker.coppersurfer.tk%3A6969&amp;tr=udp%3A%2F%2Fexodus.desync.com%3A6969","seeders":0,"leechers":0,"uploader":null,"files":1,"time":1336191515,"description":"General\nComplete name                            : [Ani] Firebreather [ATG 2010] 720p.mp4\nFormat                                   : MPEG-4\nFormat profile                           : Base Media\nCodec ID                                 : isom\nFile size                                : 658 MiB\nDuration                                 : 1h 6mn\nOverall bit rate mode                    : Variable\nOverall bit rate                         : 1 389 Kbps\n\nVideo\nID                                       : 1\nFormat                                   : AVC\nFormat/Info                              : Advanced Video Codec\nFormat profile                           : High &lt;a class=&quot;__cf_email__&quot; href=&quot;/cdn-cgi/l/email-protection&quot; data-cfemail=&quot;82b3b2c2ceb6acb2&quot;&gt;[email&amp;#160;protected]&lt;/a&gt;&lt;script cf-hash='f9e31' type=&quot;text/javascript&quot;&gt;\n/* &lt;![CDATA[ */!function(){try{var t=&quot;currentScript&quot;in document?document.currentScript:function(){for(var t=document.getElementsByTagName(&quot;script&quot;),e=t.length;e--;)if(t[e].getAttribute(&quot;cf-hash&quot;))return t[e]}();if(t&amp;&amp;t.previousSibling){var e,r,n,i,c=t.previousSibling,a=c.getAttribute(&quot;data-cfemail&quot;);if(a){for(e=&quot;&quot;,r=parseInt(a.substr(0,2),16),n=2;a.length-n;n+=2)i=parseInt(a.substr(n,2),16)^r,e+=String.fromCharCode(i);e=document.createTextNode(e),c.parentNode.replaceChild(e,c)}}}catch(u){}}();/* ]]&gt; */&lt;/script&gt;\nFormat settings, CABAC                   : Yes\nFormat settings, ReFrames                : 4 frames\nCodec ID                                 : avc1\nCodec ID/Info                            : Advanced Video Coding\nDuration                                 : 1h 6mn\nBit rate                                 : 1 200 Kbps\nMaximum bit rate                         : 8 932 Kbps\nWidth                                    : 1 280 pixels\nHeight                                   : 720 pixels\nDisplay aspect ratio                     : 16:9\nFrame rate mode                          : Constant\nFrame rate                               : 25.000 fps\nColor space                              : YUV\nChroma subsampling                       : 4:2:0\nBit depth                                : 10 bits\nScan type                                : Progressive\nBits/(Pixel*Frame)                       : 0.052\nStream size                              : 565 MiB (86%)\nWriting library                          : x264 core 120 r2120 0c7dab9\n\nAudio\nID                                       : 2\nFormat                                   : AAC\nFormat/Info                              : Advanced Audio Codec\nFormat profile                           : LC\nCodec ID                                 : 40\nDuration                                 : 1h 6mn\nBit rate mode                            : Variable\nBit rate                                 : 192 Kbps\nMaximum bit rate                         : 265 Kbps\nChannel(s)                               : 6 channels\nChannel positions                        : Front: L C R, Side: L R, LFE\nSampling rate                            : 48.0 KHz\nCompression mode                         : Lossy\nStream size                              : 90.0 MiB (14%)\n","torrent":{"xt":"urn:btih:b20c439b3c4ebe5cb9671ebb0c082db546695d97","amp;dn":"%5BAni%5D+Firebreather+%5BATG+2010%5D+720p.mp4","amp;tr":["udp%3A%2F%2Ftracker.openbittorrent.com%3A80","udp%3A%2F%2Fopen.demonii.com%3A1337","udp%3A%2F%2Ftracker.coppersurfer.tk%3A6969","udp%3A%2F%2Fexodus.desync.com%3A6969"],"infoHash":"b20c439b3c4ebe5cb9671ebb0c082db546695d97","infoHashBuffer":{"type":"Buffer","data":[178,12,67,155,60,78,190,92,185,103,30,187,12,8,45,181,70,105,93,151]},"announce":[],"urlList":[]}}